<?xml version="1.0" encoding="UTF-8" standalone="no"?>
<svg
   xmlns:dc="http://purl.org/dc/elements/1.1/"
   xmlns:cc="http://creativecommons.org/ns#"
   xmlns:rdf="http://www.w3.org/1999/02/22-rdf-syntax-ns#"
   xmlns:svg="http://www.w3.org/2000/svg"
   xmlns="http://www.w3.org/2000/svg"
   xmlns:sodipodi="http://sodipodi.sourceforge.net/DTD/sodipodi-0.dtd"
   xmlns:inkscape="http://www.inkscape.org/namespaces/inkscape"
   version="1.0"
   width="1200.000000pt"
   height="1200.000000pt"
   viewBox="0 0 1200.000000 1200.000000"
   preserveAspectRatio="xMidYMid meet"
   id="svg12"
   sodipodi:docname="ce4522f95fa22472ff0d1da4e406e7d8.svg"
   inkscape:version="0.92.4 (5da689c313, 2019-01-14)">
  <metadata
     id="metadata18">
    <rdf:RDF>
      <cc:Work
         rdf:about="">
        <dc:format>image/svg+xml</dc:format>
        <dc:type
           rdf:resource="http://purl.org/dc/dcmitype/StillImage" />
      </cc:Work>
    </rdf:RDF>
  </metadata>
  <defs
     id="defs16" />
  <sodipodi:namedview
     pagecolor="#ffffff"
     bordercolor="#666666"
     borderopacity="1"
     objecttolerance="10"
     gridtolerance="10"
     guidetolerance="10"
     inkscape:pageopacity="0"
     inkscape:pageshadow="2"
     inkscape:window-width="1920"
     inkscape:window-height="1017"
     id="namedview14"
     showgrid="false"
     inkscape:zoom="0.1475"
     inkscape:cx="-128.81356"
     inkscape:cy="1024.4068"
     inkscape:window-x="-8"
     inkscape:window-y="32"
     inkscape:window-maximized="1"
     inkscape:current-layer="g10" />
  <g
     transform="translate(0.000000,1200.000000) scale(0.100000,-0.100000)"
     id="g10"
     style="fill:#d35f5f;fill-opacity:1"
     stroke="none"
     fill="#000000">
    <path
       d="m 7615.874,11083.098 c -592.5,-96 -1021.5,-327 -1255.5,-672 -198,-294 -303,-686.9999 -304.5,-1135.4999 v -132 h 42 c 88.5,0 391.5,63 541.5,114 468,156 748.5,385.5 933,763.4999 118.5,244.5 174,495 189,852 l 9,220.5 -58.5,-1.5 c -31.5,-1.5 -75,-6 -96,-9 z"
       id="path2"
       style="fill:#ffa000;fill-opacity:0.94117647;stroke-width:1.5"
       inkscape:connector-curvature="0" />
    <path
       d="m 4879.874,10475.598 c -16.5,-51 -19.5,-223.5 -7.5,-358.5 36,-388.4999 210,-652.4999 538.5,-821.9999 115.5,-60 304.5,-124.5 415.5,-144 l 61.5,-9 10.5,126 c 19.5,225 -28.5,489 -121.5,673.5 -106.5,212.9999 -340.5,395.9999 -628.5,490.4999 -174,57 -261,70.5 -268.5,43.5 z"
       id="path4"
       style="fill:#ffa000;fill-opacity:0.94117647;stroke-width:1.5"
       inkscape:connector-curvature="0" />
    <path
       d="m 5755.874,8939.5981 c -516,-45 -958.5,-157.5 -1359,-349.5 -1165.5,-558 -1938,-1629 -2100,-2911.5 -31.5,-250.5 -22.5,-796.5 16.5,-1018.5 99,-571.5 279,-1027.5 585,-1486.5 603,-901.5 1525.5,-1470 2632.5,-1621.5 214.5,-30 702,-25.5 937.5,7.5 1248,175.5 2304,945 2844,2071.5 337.5,705 442.5,1450.5 312,2224.5 -247.5,1483.5 -1392,2683.5 -2863.5,3003 -78,18 -208.5,40.5 -292.5,52.5 -151.5,22.5 -588,39 -712.5,28.5 z m 225,-1669.5 v -778.5 l 34.5,-9 c 18,-4.5 55.5,-9 82.5,-9 144,0 421.5,-100.5 583.5,-211.5 240,-165 421.5,-426 501,-726 45,-168 45,-432 0,-600 -61.5,-231 -201,-469.5 -358.5,-609 -219,-195 -531,-327 -771,-328.5 h -72 v -789 -790.5 l -175.5,9 c -1122,52.5 -2142,837 -2500.5,1923 -399,1203 54,2520 1108.5,3225 429,288 972,465 1437,471 l 130.5,1.5 z"
       id="path6"
       style="fill:#ffa000;fill-opacity:0.94117647;stroke-width:1.5"
       inkscape:connector-curvature="0" />
    <path
       d="m 5671.874,6437.5981 c -369,-96 -664.5,-342 -823.5,-688.5 -84,-183 -103.5,-277.5 -103.5,-513 0,-156 7.5,-235.5 27,-307.5 93,-336 316.5,-621 615,-786 120,-66 327,-129 459,-139.5 l 120,-9 v 1240.5 1239 h -78 c -43.5,-1.5 -141,-18 -216,-36 z"
       id="path8"
       style="fill:#ffa000;fill-opacity:0.94117647;stroke-width:1.5"
       inkscape:connector-curvature="0" />
  </g>
</svg>
